HIERARCHY
ROOT Hips
{
	OFFSET -0.001795 -0.223333 0.028219
	CHANNELS 6 Xposition Yposition Zposition Zrotation Yrotation Xrotation 
	JOINT LeftUpLeg
	{
		OFFSET 0.069520 -0.091406 -0.006815
		CHANNELS 3 Zrotation Yrotation Xrotation
		JOINT LeftLeg
		{
			OFFSET 0.034277 -0.375199 -0.004496
			CHANNELS 3 Zrotation Yrotation Xrotation
			JOINT LeftFoot
			{
				OFFSET -0.013596 -0.397961 -0.043693
				CHANNELS 3 Zrotation Yrotation Xrotation
				JOINT LeftToe
				{
					OFFSET 0.026358 -0.055791 0.119288
					CHANNELS 3 Zrotation Yrotation Xrotation
					End Site
					{
						OFFSET 0.000000 0.000000 0.000000
					}
				}
			}
		}
	}
	JOINT RightUpLeg
	{
		OFFSET -0.067670 -0.090522 -0.004320
		CHANNELS 3 Zrotation Yrotation Xrotation
		JOINT RightLeg
		{
			OFFSET -0.038290 -0.382569 -0.008850
			CHANNELS 3 Zrotation Yrotation Xrotation
			JOINT RightFoot
			{
				OFFSET 0.015774 -0.398415 -0.042312
				CHANNELS 3 Zrotation Yrotation Xrotation
				JOINT RightToe
				{
					OFFSET -0.025372 -0.048144 0.123348
					CHANNELS 3 Zrotation Yrotation Xrotation
					End Site
					{
						OFFSET 0.000000 0.000000 0.000000
					}
				}
			}
		}
	}
	JOINT Spine
	{
		OFFSET -0.002533 0.108963 -0.026696
		CHANNELS 3 Zrotation Yrotation Xrotation
		JOINT Spine1
		{
			OFFSET 0.005487 0.135180 0.001092
			CHANNELS 3 Zrotation Yrotation Xrotation
			JOINT Spine2
			{
				OFFSET 0.001457 0.052922 0.025425
				CHANNELS 3 Zrotation Yrotation Xrotation
				JOINT Neck
				{
					OFFSET -0.002778 0.213870 -0.042857
					CHANNELS 3 Zrotation Yrotation Xrotation
					JOINT Head
					{
						OFFSET 0.005152 0.064970 0.051349
						CHANNELS 3 Zrotation Yrotation Xrotation
						End Site
						{
							OFFSET 0.000000 0.000000 0.000000
						}
					}
				}
				JOINT LeftShoulder
				{
					OFFSET 0.078845 0.121749 -0.034090
					CHANNELS 3 Zrotation Yrotation Xrotation
					JOINT LeftArm
					{
						OFFSET 0.090977 0.030469 -0.008868
						CHANNELS 3 Zrotation Yrotation Xrotation
						JOINT LeftForeArm
						{
							OFFSET 0.259612 -0.012772 -0.027456
							CHANNELS 3 Zrotation Yrotation Xrotation
							JOINT LeftHand
							{
								OFFSET 0.249234 0.008986 -0.001171
								CHANNELS 3 Zrotation Yrotation Xrotation
								End Site
								{
									OFFSET 0.000000 0.000000 0.000000
								}
							}
						}
					}
				}
				JOINT RightShoulder
				{
					OFFSET -0.081759 0.118833 -0.038615
					CHANNELS 3 Zrotation Yrotation Xrotation
					JOINT RightArm
					{
						OFFSET -0.096012 0.032551 -0.009143
						CHANNELS 3 Zrotation Yrotation Xrotation
						JOINT RightForeArm
						{
							OFFSET -0.253742 -0.013329 -0.021401
							CHANNELS 3 Zrotation Yrotation Xrotation
							JOINT RightHand
							{
								OFFSET -0.255298 0.007772 -0.005559
								CHANNELS 3 Zrotation Yrotation Xrotation
								End Site
								{
									OFFSET 0.000000 0.000000 0.000000
								}
							}
						}
					}
				}
			}
		}
	}
}
MOTION
Frames: 6
Frame Time: 0.050000
0.000000 0.947791 0.000000 -0.585836 -5.729754 -2.330575 -1.725580 0.590782 5.193518 0.771577 -0.107454 0.385470 -0.138705 3.720085 12.115931 0.000000 0.000000 0.000000 2.794157 -0.428770 3.002491 -3.112015 0.415041 1.571133 2.504936 -1.552945 12.982083 0.000000 0.000000 0.000000 6.515051 -0.732735 7.698855 -5.866061 3.624954 10.288282 -4.319394 2.487524 -18.680273 7.311272 -6.006087 4.704366 0.000000 0.000000 0.000000 -29.151874 -8.595093 0.453469 -44.017835 6.053455 -4.890231 -10.174767 -22.220417 2.527957 0.000000 0.000000 0.000000 29.290647 -0.361528 -3.395265 52.097268 -8.436282 -6.406389 9.856700 24.676643 2.550655 0.000000 0.000000 0.000000 
-0.000023 0.947019 0.000778 -0.849847 -6.207837 -1.795643 -1.086432 0.604102 5.545127 0.053100 0.027237 -1.045410 0.016614 3.897284 12.030179 0.000000 0.000000 0.000000 2.966963 -0.379257 2.473692 -2.979330 0.395964 1.549771 2.690282 -1.190404 12.788878 0.000000 0.000000 0.000000 7.569622 -0.719011 6.835715 -6.013278 3.933036 12.398995 -5.871902 2.505903 -20.272388 7.902339 -6.037570 2.834828 0.000000 0.000000 0.000000 -28.468949 -8.722543 0.212100 -44.079998 5.488080 -4.484544 -10.632179 -22.419825 2.589314 0.000000 0.000000 0.000000 29.125406 -0.936474 -3.550826 53.377238 -8.935357 -6.729911 9.733552 25.335010 2.603181 0.000000 0.000000 0.000000 
-0.000081 0.946629 0.001263 -0.353455 -6.216120 -1.790096 -1.483246 0.586295 5.219734 -0.216120 0.042021 -0.529855 0.022229 3.901960 12.040807 0.000000 0.000000 0.000000 2.608489 -0.358159 2.440653 -3.307342 0.433943 1.565555 2.588280 -1.208737 12.406324 0.000000 0.000000 0.000000 7.571127 -0.728605 6.925873 -6.657445 4.098509 9.845072 -5.462366 2.539523 -17.981276 6.478705 -5.236710 3.685174 0.000000 0.000000 0.000000 -28.161978 -8.701779 0.506547 -44.345180 4.652321 -4.475081 -10.385644 -21.202202 2.439986 0.000000 0.000000 0.000000 30.047888 -0.182718 -3.210811 52.413512 -8.847890 -6.759001 9.520952 24.916911 2.536024 0.000000 0.000000 0.000000 
-0.000250 0.946702 0.001715 -0.261911 -6.251824 -1.717754 -1.357155 0.619339 5.551886 -0.594369 0.104947 -1.219521 -0.058315 3.817571 12.242617 0.000000 0.000000 0.000000 2.634236 -0.332070 2.200030 -3.514789 0.481396 1.885798 2.564103 -1.228695 12.335898 0.000000 0.000000 0.000000 7.574087 -0.649010 6.138604 -5.957768 3.824701 11.594177 -6.452423 2.591409 -18.759782 6.318659 -5.058701 3.234956 0.000000 0.000000 0.000000 -27.788697 -8.951051 0.442635 -45.271413 4.014729 -4.244376 -9.595603 -21.235605 2.261901 0.000000 0.000000 0.000000 29.659550 0.076385 -2.824752 52.986904 -8.455261 -6.656635 9.796643 25.458016 2.668457 0.000000 0.000000 0.000000 
-0.000430 0.947261 0.002130 -0.164068 -6.216941 -1.922915 -1.527564 0.618823 5.479889 -0.454383 0.074115 -0.680162 -0.076731 3.830366 12.389856 0.000000 0.000000 0.000000 2.496127 -0.343734 2.369937 -3.441712 0.482804 2.014795 2.585527 -1.254997 12.483782 0.000000 0.000000 0.000000 7.534203 -0.671609 6.421703 -5.985326 3.819896 11.352664 -6.485912 2.775244 -18.477892 6.008805 -4.926244 3.578213 0.000000 0.000000 0.000000 -27.621916 -9.417484 0.701357 -45.428559 3.400243 -4.052590 -9.540544 -20.763771 2.203650 0.000000 0.000000 0.000000 29.615677 0.371282 -2.548056 53.022747 -8.200844 -6.601013 9.647647 25.465884 2.653060 0.000000 0.000000 0.000000 
-0.000645 0.947642 0.002728 -0.119348 -6.121908 -2.135410 -1.638406 0.645408 5.666651 -0.295112 0.051896 -0.554331 -0.140275 3.770248 12.504803 0.000000 0.000000 0.000000 2.471863 -0.380705 2.718525 -3.463088 0.475899 1.880725 2.581928 -1.311453 12.620960 0.000000 0.000000 0.000000 7.539085 -0.669373 6.441681 -5.828947 3.705425 11.225767 -6.450586 2.756817 -18.001933 5.444848 -4.563035 3.760082 0.000000 0.000000 0.000000 -27.990569 -9.657170 0.867538 -45.167714 3.145026 -3.972923 -9.423964 -21.067793 2.223790 0.000000 0.000000 0.000000 29.603273 1.019115 -2.112651 52.957186 -7.926590 -6.521769 9.157000 25.558418 2.569423 0.000000 0.000000 0.000000 
